<svg xmlns="http://www.w3.org/2000/svg" version="1.1" xmlns:xlink="http://www.w3.org/1999/xlink" xmlns:svgjs="http://svgjs.dev/svgjs" width="1500" height="1026" viewBox="0 0 1500 1026"><g transform="matrix(1,0,0,1,0.9106060520687151,0.41538461538459615)"><svg viewBox="0 0 361 247" data-background-color="#14293a" preserveAspectRatio="xMidYMid meet" height="1026" width="1500" xmlns="http://www.w3.org/2000/svg" xmlns:xlink="http://www.w3.org/1999/xlink"><g id="tight-bounds" transform="matrix(1,0,0,1,-0.21915252319786305,-0.09999999999999432)"><svg viewBox="0 0 361.4383050463957 247.2" height="247.2" width="361.4383050463957"><g><svg viewBox="0 0 395.52 270.50963507437183" height="247.2" width="361.4383050463957"><g><svg viewBox="0 0 395.52 270.50963507437183" height="270.50963507437183" width="395.52"><g id="textblocktransform"><svg viewBox="0 0 395.52 270.50963507437183" height="270.50963507437183" width="395.52" id="textblock"><g><svg viewBox="0 0 395.52 238.69616843767258" height="238.69616843767258" width="395.52"><rect width="395.52" height="238.69616843767258" x="0" y="0" opacity="1" fill="#e9e4de" data-fill-palette-color="tertiary"></rect><g transform="matrix(1,0,0,1,23.461705032,23.461705032)"><svg width="348.596589936" viewBox="-0.711111088884 -38.16 73.00123013650304 40.16" height="191.7727583736726" data-palette-color="#14293a"><path d="M-0.66-1.54L7.91-35.11Q8.2-36.16 9.35-36.21L9.35-36.21 10.96-36.21Q12.01-36.21 12.16-35.06L12.16-35.06Q13.06-25.66 13.16-21.56 13.26-17.46 13.01-13.89L13.01-13.89 25.81-35.25Q26.34-36.21 27.29-36.21L27.29-36.21 28.86-36.21Q29.49-36.21 29.75-35.73 30-35.25 29.86-34.64L29.86-34.64 21.31-1.1Q21 0 19.8 0L19.8 0 18.36 0Q17.75 0 17.48-0.45 17.21-0.9 17.36-1.54L17.36-1.54 23.1-24.05Q21-20.41 18.1-15.88 15.21-11.35 14.31-9.91L14.31-9.91Q13.06-7.86 11.79-7.96L11.79-7.96 10.79-8.01Q9.4-8.11 9.55-10.01L9.55-10.01Q9.91-15.45 9.3-24.56L9.3-24.56 3.3-1.1Q3 0 1.81 0L1.81 0 0.34 0Q-0.24 0-0.52-0.45-0.81-0.9-0.66-1.54L-0.66-1.54ZM27.93-1.54L36.5-35.11Q36.79-36.16 37.94-36.21L37.94-36.21 39.45-36.21Q39.99-36.21 40.32-35.83 40.65-35.45 40.74-34.64L40.74-34.64 45.19-9.35 51.73-35.11Q52.05-36.21 53.24-36.21L53.24-36.21 54.69-36.21Q55.3-36.21 55.56-35.75 55.83-35.3 55.69-34.64L55.69-34.64 47.14-1.1Q46.85 0 45.63 0L45.63 0 43.85 0Q43.48 0 43.23-0.22 42.99-0.44 42.84-1.54L42.84-1.54 38.45-26.76 31.88-1.1Q31.59 0 30.39 0L30.39 0 28.93 0Q28.34 0 28.06-0.45 27.78-0.9 27.93-1.54L27.93-1.54ZM68.55-24L68.55-24 68.79-27.49Q68.79-30.1 68.22-30.77 67.65-31.45 66.84-31.4L66.84-31.4Q64.94-31.05 63.74-28.45 62.54-25.85 62.21-23.66 61.88-21.46 62.74-20.78 63.59-20.09 65.89-19.65L65.89-19.65Q69.75-18.8 69.32-14.25 68.89-9.69 66.69-6.02 64.5-2.34 61.03-1.49L61.03-1.49 60.4 0.95Q60.1 2 58.93 2L58.93 2 58.1 2Q56.49 2 56.83 0.44L56.83 0.44 57.44-1.71Q54.49-3.15 54.78-10.74L54.78-10.74Q54.85-12.01 55.83-12.79L55.83-12.79 56.83-13.4Q57.59-13.75 58.14-13.5 58.69-13.26 58.49-11.52 58.3-9.79 58.56-7.02 58.83-4.25 60.35-4.25L60.35-4.25Q61.84-4.3 63.17-6.25 64.5-8.2 64.97-10.45 65.45-12.7 65.5-13.89L65.5-13.89Q65.55-16.31 61.54-17.04L61.54-17.04Q58.15-17.7 58.2-20.9L58.2-20.9Q58.34-25.29 60.44-29.2 62.54-33.11 65.69-34.2L65.69-34.2 66.45-37.11Q66.74-38.16 67.89-38.16L67.89-38.16 68.99-38.16Q70.33-38.16 70.04-37.06L70.04-37.06 69.33-34.4Q71.38-33.79 71.93-31.52 72.48-29.25 72.19-24.95L72.19-24.95Q72.09-23.85 71.09-23.46L71.09-23.46 69.65-22.95Q69.04-22.85 68.77-23.05 68.5-23.24 68.55-24Z" opacity="1" transform="matrix(1,0,0,1,0,0)" fill="#14293a" class="wordmark-text-0" data-fill-palette-color="quaternary" id="text-0"></path></svg></g></svg></g><g transform="matrix(1,0,0,1,0,250.42702095367258)"><svg viewBox="0 0 395.52 20.082614120699237" height="20.082614120699237" width="395.52"><g transform="matrix(1,0,0,1,0,0)"><svg width="395.52" viewBox="-2.7 -34.15 809.36 41.1" height="20.082614120699237" data-palette-color="#e9e4de"><path d="M24.65-33.85Q23.95-30.35 23.7-26.65 23.45-22.95 23.45-14.75 23.45-6.55 24.1-1.75L24.1-1.75Q26.75-1.5 29.6-0.8L29.6-0.8 29.45 0.4Q25.75 0 21.43 0 17.1 0 14.45 0.4L14.45 0.4 14.25-0.85Q16.5-1.55 19.05-1.9L19.05-1.9Q19.45-5.2 19.6-12.55L19.6-12.55Q17-12.85 13.88-12.85 10.75-12.85 8.6-12.55L8.6-12.55Q7.4-7.65 7.4-4.7 7.4-1.75 9.55-0.5L9.55-0.5 9.35 0.2Q7.8 0 4.13 0 0.45 0-2.5 0.4L-2.5 0.4-2.7-0.85Q-0.45-1.55 2.1-1.9L2.1-1.9 10-29.9Q4.1-29.9 2.45-28.3L2.45-28.3Q2.1-27.6 2.1-26.1 2.1-24.6 2.6-24.05L2.6-24.05 2.55-23.7Q1.3-22.95 0.05-21.6L0.05-21.6Q-0.55-21.65-0.93-22.1-1.3-22.55-1.3-23.15L-1.3-23.15Q-1.3-25.6 1.65-29 4.6-32.4 7.15-33.3L7.15-33.3Q14.7-32.45 22.45-31.85L22.45-31.85Q23.15-32.75 23.6-34.15L23.6-34.15 24.65-33.85ZM12.75-29.9L9.15-15.05Q11.4-14.7 14.48-14.7 17.55-14.7 19.6-15.05L19.6-15.05Q19.6-23.9 19.35-29.5L19.35-29.5 19.2-29.65Q16.6-29.9 12.75-29.9L12.75-29.9ZM32.1-24.95L32.1-25.95 43.6-26.3Q48.1-26.3 50.35-24.98 52.6-23.65 52.6-20.15L52.6-20.15Q52.6-17.75 51.12-15.9 49.65-14.05 47.25-13.15L47.25-13.15 52.85-1.7Q54.55-1.4 56.05-1L56.05-1 55.85 0.35Q53.75 0 51.12 0 48.5 0 47 0.25L47 0.25 46.8-0.55Q47.45-1.2 47.45-2.7L47.45-2.7Q47.45-5.75 43.95-12.5L43.95-12.5Q42.9-12.7 41.5-12.7L41.5-12.7 41.6-14.15 42.1-14.15Q48-14.15 48-19.55L48-19.55Q48-24.55 42.95-24.55L42.95-24.55Q41.25-24.55 39.9-24L39.9-24Q39.55-20.7 39.55-12.7 39.55-4.7 40-1.65L40-1.65Q42.2-1.4 44.1-0.9L44.1-0.9 43.95 0.35Q41.35 0 38.12 0 34.9 0 32.35 0.4L32.35 0.4 32.15-0.9Q33.55-1.35 35.3-1.65L35.3-1.65Q35.8-5.4 35.8-13.33 35.8-21.25 35.35-24.3L35.35-24.3Q33.4-24.95 32.1-24.95L32.1-24.95ZM69.7-2.9L69.7-2.9Q73.15-2.9 76.2-5.95L76.2-5.95 76.9-5.25Q73.55-1 68.84 0.6L68.84 0.6Q64 0.6 61.25-2.48 58.5-5.55 58.5-10.78 58.5-16 61.75-20.6 65-25.2 70.05-26.65L70.05-26.65Q73.7-26.65 78.3-25.9L78.3-25.9 78.25-24.8Q77.3-24.8 76.45-24.45L76.45-24.45Q75.5-22.2 75.2-19.1L75.2-19.1 73.95-19.1Q73.55-20.8 73.55-22.6L73.55-22.6Q71.65-23.55 69.05-23.55 66.45-23.55 64.75-22.15L64.75-22.15Q62.8-18.6 62.8-13.55L62.8-13.55Q62.8-5.7 66.15-3.7L66.15-3.7Q67.59-2.9 69.7-2.9ZM95.69-25.15L95.89-26.45Q98.44-26.05 101.67-26.05 104.89-26.05 107.49-26.4L107.49-26.4 107.64-25.15Q105.74-24.65 103.49-24.4L103.49-24.4Q102.99-21.3 102.99-14.2L102.99-14.2 102.99-11.85Q102.99-4.65 103.49-1.65L103.49-1.65Q105.74-1.4 107.64-0.9L107.64-0.9 107.49 0.35Q104.89 0 101.67 0 98.44 0 95.89 0.4L95.89 0.4 95.69-0.9Q97.09-1.35 98.84-1.65L98.84-1.65Q99.24-7.3 99.29-12.95L99.29-12.95Q96.09-13.25 93.39-13.25 90.69-13.25 87.54-12.95L87.54-12.95Q87.54-4.7 87.99-1.65L87.99-1.65Q90.24-1.4 92.14-0.9L92.14-0.9 91.99 0.35Q89.39 0 86.17 0 82.94 0 80.39 0.4L80.39 0.4 80.19-0.9Q81.59-1.35 83.34-1.65L83.34-1.65Q83.79-5.25 83.79-11.85L83.79-11.85 83.79-14.2Q83.79-20.8 83.29-24.4L83.29-24.4Q81.54-24.7 80.14-25.15L80.14-25.15 80.34-26.45Q82.89-26.05 86.12-26.05 89.34-26.05 91.94-26.4L91.94-26.4 92.09-25.15Q90.19-24.65 87.94-24.4L87.94-24.4Q87.54-21.5 87.54-15.45L87.54-15.45Q90.34-15.05 93.57-15.05 96.79-15.05 99.29-15.4L99.29-15.4Q99.24-19.65 98.84-24.4L98.84-24.4Q97.09-24.7 95.69-25.15L95.69-25.15ZM118.84-24.4L118.84-24.4Q118.44-21.7 118.44-13.35 118.44-5 118.89-1.65L118.89-1.65Q121.14-1.4 123.04-0.9L123.04-0.9 122.89 0.35Q120.29 0 117.07 0 113.84 0 111.29 0.4L111.29 0.4 111.09-0.9Q112.49-1.35 114.24-1.65L114.24-1.65Q114.69-5.25 114.69-11.85L114.69-11.85 114.69-14.2Q114.69-20.8 114.19-24.4L114.19-24.4Q112.44-24.7 111.04-25.15L111.04-25.15 111.24-26.45Q113.79-26.05 117.02-26.05 120.24-26.05 122.84-26.4L122.84-26.4 122.99-25.15Q121.09-24.65 118.84-24.4ZM142.79-23.35L142.79-23.35Q141.04-24.2 139.44-24.2 137.84-24.2 137.29-24L137.29-24Q136.89-21.3 136.89-13.55 136.89-5.8 137.44-1.65L137.44-1.65Q139.69-1.4 141.59-0.9L141.59-0.9 141.44 0.35Q138.84 0 135.46 0 132.09 0 129.54 0.4L129.54 0.4 129.34-0.9Q130.34-1.2 132.79-1.65L132.79-1.65Q133.24-5.25 133.24-11.85L133.24-11.85 133.24-14.2Q133.24-17.7 132.69-24L132.69-24Q132.14-24.2 130.64-24.2 129.14-24.2 127.44-23.5L127.44-23.5Q126.94-21.95 126.74-19.35L126.74-19.35 125.44-19.35Q125.44-23.45 124.09-25.7L124.09-25.7 124.34-26.55Q128.19-26.05 135.14-26.05 142.09-26.05 146.34-26.6L146.34-26.6 146.64-25.65Q145.39-24.25 144.94-22.93 144.49-21.6 144.39-19.35L144.39-19.35 143.14-19.35Q142.79-21 142.79-23.35ZM152.39-12.35Q152.54-7.9 154.04-5.4 155.54-2.9 159.14-2.9 162.74-2.9 165.79-5.95L165.79-5.95 166.49-5.25Q163.14-1 158.44 0.6L158.44 0.6Q153.59 0.6 150.84-2.48 148.09-5.55 148.09-10.78 148.09-16 151.34-20.6 154.59-25.2 159.64-26.65L159.64-26.65Q163.29-26.65 167.89-25.9L167.89-25.9 167.84-24.8Q166.89-24.8 166.04-24.45L166.04-24.45Q165.09-22.2 164.79-19.1L164.79-19.1 163.54-19.1Q163.14-20.8 163.14-22.6L163.14-22.6Q161.24-23.55 158.64-23.55 156.04-23.55 154.34-22.15L154.34-22.15Q152.64-19.05 152.39-14.75L152.39-14.75Q154.49-14.4 156.89-14.4L156.89-14.4Q161.04-14.4 161.89-16.15L161.89-16.15 162.94-16Q162.49-14.5 162.49-13.05 162.49-11.6 162.84-9.5L162.84-9.5 161.64-9.3Q161.09-10.8 160.84-12.4L160.84-12.4Q158.84-12.6 156.86-12.6 154.89-12.6 152.39-12.35L152.39-12.35ZM181.68-2.9L181.68-2.9Q185.13-2.9 188.18-5.95L188.18-5.95 188.88-5.25Q185.53-1 180.83 0.6L180.83 0.6Q175.98 0.6 173.23-2.48 170.48-5.55 170.48-10.78 170.48-16 173.73-20.6 176.98-25.2 182.03-26.65L182.03-26.65Q185.68-26.65 190.28-25.9L190.28-25.9 190.23-24.8Q189.28-24.8 188.43-24.45L188.43-24.45Q187.48-22.2 187.18-19.1L187.18-19.1 185.93-19.1Q185.53-20.8 185.53-22.6L185.53-22.6Q183.63-23.55 181.03-23.55 178.43-23.55 176.73-22.15L176.73-22.15Q174.78-18.6 174.78-13.55L174.78-13.55Q174.78-5.7 178.13-3.7L178.13-3.7Q179.58-2.9 181.68-2.9ZM208.43-23.35L208.43-23.35Q206.68-24.2 205.08-24.2 203.48-24.2 202.93-24L202.93-24Q202.53-21.3 202.53-13.55 202.53-5.8 203.08-1.65L203.08-1.65Q205.33-1.4 207.23-0.9L207.23-0.9 207.08 0.35Q204.48 0 201.11 0 197.73 0 195.18 0.4L195.18 0.4 194.98-0.9Q195.98-1.2 198.43-1.65L198.43-1.65Q198.88-5.25 198.88-11.85L198.88-11.85 198.88-14.2Q198.88-17.7 198.33-24L198.33-24Q197.78-24.2 196.28-24.2 194.78-24.2 193.08-23.5L193.08-23.5Q192.58-21.95 192.38-19.35L192.38-19.35 191.08-19.35Q191.08-23.45 189.73-25.7L189.73-25.7 189.98-26.55Q193.83-26.05 200.78-26.05 207.73-26.05 211.98-26.6L211.98-26.6 212.28-25.65Q211.03-24.25 210.58-22.93 210.13-21.6 210.03-19.35L210.03-19.35 208.78-19.35Q208.43-21 208.43-23.35ZM221.48-24.4L221.48-24.4Q221.08-21.7 221.08-13.35 221.08-5 221.53-1.65L221.53-1.65Q223.78-1.4 225.68-0.9L225.68-0.9 225.53 0.35Q222.93 0 219.7 0 216.48 0 213.93 0.4L213.93 0.4 213.73-0.9Q215.13-1.35 216.88-1.65L216.88-1.65Q217.33-5.25 217.33-11.85L217.33-11.85 217.33-14.2Q217.33-20.8 216.83-24.4L216.83-24.4Q215.08-24.7 213.68-25.15L213.68-25.15 213.88-26.45Q216.43-26.05 219.65-26.05 222.88-26.05 225.48-26.4L225.48-26.4 225.63-25.15Q223.73-24.65 221.48-24.4ZM241.28-0.9L241.13 0.35Q238.53 0 235.3 0 232.08 0 229.53 0.4L229.53 0.4 229.33-0.9Q230.93-1.4 232.33-1.65L232.33-1.65Q232.78-5.55 232.78-11.85L232.78-11.85 232.78-14.2Q232.78-20.9 232.28-24.5L232.28-24.5Q230.93-24.65 229.03-25.3L229.03-25.3 229.18-26.6Q232.03-26.05 235.15-26.05 238.28-26.05 239.63-26.4L239.63-26.4 239.73-25.55Q238.38-25.2 238.38-24.4L238.38-24.4Q238.38-23.8 239.55-21.88 240.73-19.95 241.83-18.15L241.83-18.15Q245.13-12.9 249.63-5.25L249.63-5.25 249.78-5.35 249.78-11.45Q249.78-18.15 249.08-21.53 248.38-24.9 246.68-25.45L246.68-25.45 246.78-26.3Q248.08-26.05 250.68-26.05 253.28-26.05 256.03-26.6L256.03-26.6 256.18-25.3Q254.13-24.65 252.73-24.5L252.73-24.5Q252.23-20.5 252.23-14.2L252.23-14.2 252.23-11.85Q252.23-4.25 252.73-1.55L252.73-1.55Q254.83-1.2 256.08-0.75L256.08-0.75 255.93 0.55Q253.43 0 251.23 0 249.03 0 247.83 0.2L247.83 0.2Q247.83-0.9 246.3-3.5 244.78-6.1 243.53-8.1L243.53-8.1Q239.48-14.65 235.58-21.4L235.58-21.4 235.38-21.3 235.38-14.6Q235.38-4.65 236.88-1.65L236.88-1.65Q239.13-1.4 241.28-0.9L241.28-0.9ZM271.52-2.9L271.52-2.9Q273.67-2.9 275.77-4.15L275.77-4.15 275.52-9.5Q274.12-9.95 272.12-10.3L272.12-10.3 272.27-11.35Q273.47-11.25 274.02-11.25L274.02-11.25Q277.47-11.25 280.27-13.1L280.27-13.1 280.77-12.2Q280.17-11.65 279.67-11.05L279.67-11.05Q278.97-4.25 278.77 0.15L278.77 0.15 277.72 0.15Q277.32-1.7 276.52-2.9L276.52-2.9Q273.62-0.35 270.67 0.6L270.67 0.6Q265.82 0.6 263.07-2.48 260.32-5.55 260.32-10.78 260.32-16 263.57-20.6 266.82-25.2 271.87-26.65L271.87-26.65Q275.52-26.65 280.12-25.9L280.12-25.9 280.07-24.8Q279.12-24.8 278.27-24.45L278.27-24.45Q277.32-22.2 277.02-19.1L277.02-19.1 275.77-19.1Q275.37-20.8 275.37-22.6L275.37-22.6Q273.47-23.55 270.87-23.55 268.27-23.55 266.57-22.15L266.57-22.15Q264.57-18.5 264.57-13.53 264.57-8.55 266.05-5.73 267.52-2.9 271.52-2.9ZM310.17-23.35L310.17-23.35Q308.42-24.2 306.82-24.2 305.22-24.2 304.67-24L304.67-24Q304.27-21.3 304.27-13.55 304.27-5.8 304.82-1.65L304.82-1.65Q307.07-1.4 308.97-0.9L308.97-0.9 308.82 0.35Q306.22 0 302.84 0 299.47 0 296.92 0.4L296.92 0.4 296.72-0.9Q297.72-1.2 300.17-1.65L300.17-1.65Q300.62-5.25 300.62-11.85L300.62-11.85 300.62-14.2Q300.62-17.7 300.07-24L300.07-24Q299.52-24.2 298.02-24.2 296.52-24.2 294.82-23.5L294.82-23.5Q294.32-21.95 294.12-19.35L294.12-19.35 292.82-19.35Q292.82-23.45 291.47-25.7L291.47-25.7 291.72-26.55Q295.57-26.05 302.52-26.05 309.47-26.05 313.72-26.6L313.72-26.6 314.02-25.65Q312.77-24.25 312.32-22.93 311.87-21.6 311.77-19.35L311.77-19.35 310.52-19.35Q310.17-21 310.17-23.35ZM330.97-25.15L331.17-26.45Q333.72-26.05 336.94-26.05 340.17-26.05 342.77-26.4L342.77-26.4 342.92-25.15Q341.02-24.65 338.77-24.4L338.77-24.4Q338.27-21.3 338.27-14.2L338.27-14.2 338.27-11.85Q338.27-4.65 338.77-1.65L338.77-1.65Q341.02-1.4 342.92-0.9L342.92-0.9 342.77 0.35Q340.17 0 336.94 0 333.72 0 331.17 0.4L331.17 0.4 330.97-0.9Q332.37-1.35 334.12-1.65L334.12-1.65Q334.52-7.3 334.57-12.95L334.57-12.95Q331.37-13.25 328.67-13.25 325.97-13.25 322.82-12.95L322.82-12.95Q322.82-4.7 323.27-1.65L323.27-1.65Q325.52-1.4 327.42-0.9L327.42-0.9 327.27 0.35Q324.67 0 321.44 0 318.22 0 315.67 0.4L315.67 0.4 315.47-0.9Q316.87-1.35 318.62-1.65L318.62-1.65Q319.07-5.25 319.07-11.85L319.07-11.85 319.07-14.2Q319.07-20.8 318.57-24.4L318.57-24.4Q316.82-24.7 315.42-25.15L315.42-25.15 315.62-26.45Q318.17-26.05 321.39-26.05 324.62-26.05 327.22-26.4L327.22-26.4 327.37-25.15Q325.47-24.65 323.22-24.4L323.22-24.4Q322.82-21.5 322.82-15.45L322.82-15.45Q325.62-15.05 328.84-15.05 332.07-15.05 334.57-15.4L334.57-15.4Q334.52-19.65 334.12-24.4L334.12-24.4Q332.37-24.7 330.97-25.15L330.97-25.15ZM350.66-12.35Q350.81-7.9 352.31-5.4 353.81-2.9 357.41-2.9 361.01-2.9 364.06-5.95L364.06-5.95 364.76-5.25Q361.41-1 356.71 0.6L356.71 0.6Q351.86 0.6 349.11-2.48 346.36-5.55 346.36-10.78 346.36-16 349.61-20.6 352.86-25.2 357.91-26.65L357.91-26.65Q361.56-26.65 366.16-25.9L366.16-25.9 366.11-24.8Q365.16-24.8 364.31-24.45L364.31-24.45Q363.36-22.2 363.06-19.1L363.06-19.1 361.81-19.1Q361.41-20.8 361.41-22.6L361.41-22.6Q359.51-23.55 356.91-23.55 354.31-23.55 352.61-22.15L352.61-22.15Q350.91-19.05 350.66-14.75L350.66-14.75Q352.76-14.4 355.16-14.4L355.16-14.4Q359.31-14.4 360.16-16.15L360.16-16.15 361.21-16Q360.76-14.5 360.76-13.05 360.76-11.6 361.11-9.5L361.11-9.5 359.91-9.3Q359.36-10.8 359.11-12.4L359.11-12.4Q357.11-12.6 355.14-12.6 353.16-12.6 350.66-12.35L350.66-12.35ZM393.76-32.25L393.76-32.25Q397.71-32.25 399.21-33.8L399.21-33.8 400.16-33.3Q398.01-29.4 397.66-24.2L397.66-24.2 396.41-24.2Q395.96-26.35 395.96-29.65L395.96-29.65Q394.66-29.25 392.71-29.25 390.76-29.25 386.26-29.65L386.26-29.65Q385.86-25.95 385.86-18.3L385.86-18.3Q388.01-17.9 390.06-17.9L390.06-17.9Q393.96-17.9 395.01-20.05L395.01-20.05 396.01-19.85Q395.56-18.25 395.56-16.03 395.56-13.8 395.86-11.65L395.86-11.65 394.71-11.45Q393.96-13.35 393.71-15.9L393.71-15.9Q391.86-16.05 389.86-16.05 387.86-16.05 385.86-15.8L385.86-15.8Q385.91-5.6 386.51-1.75L386.51-1.75Q389.01-1.5 392.01-0.8L392.01-0.8 391.86 0.4Q388.16 0 383.83 0 379.51 0 376.86 0.4L376.86 0.4 376.66-0.85Q378.91-1.55 381.46-1.9L381.46-1.9Q382.01-6 382.01-14.8L382.01-14.8 382.01-17.75Q382.01-22.7 381.41-29.9L381.41-29.9 381.31-29.9Q375.41-29.9 373.76-28.3L373.76-28.3Q373.41-27.6 373.41-26.1 373.41-24.6 373.91-24.05L373.91-24.05 373.86-23.7Q372.61-22.95 371.36-21.6L371.36-21.6Q370.76-21.65 370.38-22.1 370.01-22.55 370.01-23.15L370.01-23.15Q370.01-25.6 372.96-29 375.91-32.4 378.46-33.3L378.46-33.3Q381.96-33.15 386.63-32.7 391.31-32.25 393.76-32.25ZM422.96-14.2L422.96-14.2 422.96-11.85Q422.96-5 423.46-1.6L423.46-1.6Q425.76-1.3 427.26-0.9L427.26-0.9 427.11 0.35Q424.66 0 422.08 0 419.51 0 418.56 0.15L418.56 0.15 418.36-0.5Q418.81-1 418.96-3.35L418.96-3.35Q416.36-0.65 412.96 0.6L412.96 0.6Q404.36 0.6 404.36-9.65L404.36-9.65Q404.36-11.9 404.71-16.85 405.06-21.8 405.06-22.65 405.06-23.5 404.76-24.3L404.76-24.3 404.76-24.35Q402.66-24.7 401.41-25.1L401.41-25.1 401.61-26.45Q404.51-26.05 406.86-26.05 409.21-26.05 410.71-26.3L410.71-26.3 410.91-25.45Q409.11-24.5 408.81-22L408.81-22Q408.21-17.2 408.21-12.15 408.21-7.1 409.38-4.98 410.56-2.85 413.78-2.85 417.01-2.85 419.01-4.7L419.01-4.7Q419.21-8.7 419.21-14.15 419.21-19.6 418.81-24.4L418.81-24.4Q416.56-24.65 414.66-25.15L414.66-25.15 414.81-26.4Q417.41-26.05 420.63-26.05 423.86-26.05 426.41-26.45L426.41-26.45 426.61-25.15Q425.21-24.7 423.46-24.4L423.46-24.4Q422.96-21.05 422.96-14.2ZM447.3-23.35L447.3-23.35Q445.55-24.2 443.95-24.2 442.35-24.2 441.8-24L441.8-24Q441.4-21.3 441.4-13.55 441.4-5.8 441.95-1.65L441.95-1.65Q444.2-1.4 446.1-0.9L446.1-0.9 445.95 0.35Q443.35 0 439.98 0 436.6 0 434.05 0.4L434.05 0.4 433.85-0.9Q434.85-1.2 437.3-1.65L437.3-1.65Q437.75-5.25 437.75-11.85L437.75-11.85 437.75-14.2Q437.75-17.7 437.2-24L437.2-24Q436.65-24.2 435.15-24.2 433.65-24.2 431.95-23.5L431.95-23.5Q431.45-21.95 431.25-19.35L431.25-19.35 429.95-19.35Q429.95-23.45 428.6-25.7L428.6-25.7 428.85-26.55Q432.7-26.05 439.65-26.05 446.6-26.05 450.85-26.6L450.85-26.6 451.15-25.65Q449.9-24.25 449.45-22.93 449-21.6 448.9-19.35L448.9-19.35 447.65-19.35Q447.3-21 447.3-23.35ZM473.4-14.2L473.4-14.2 473.4-11.85Q473.4-5 473.9-1.6L473.9-1.6Q476.2-1.3 477.7-0.9L477.7-0.9 477.55 0.35Q475.1 0 472.53 0 469.95 0 469 0.15L469 0.15 468.8-0.5Q469.25-1 469.4-3.35L469.4-3.35Q466.8-0.65 463.4 0.6L463.4 0.6Q454.8 0.6 454.8-9.65L454.8-9.65Q454.8-11.9 455.15-16.85 455.5-21.8 455.5-22.65 455.5-23.5 455.2-24.3L455.2-24.3 455.2-24.35Q453.1-24.7 451.85-25.1L451.85-25.1 452.05-26.45Q454.95-26.05 457.3-26.05 459.65-26.05 461.15-26.3L461.15-26.3 461.35-25.45Q459.55-24.5 459.25-22L459.25-22Q458.65-17.2 458.65-12.15 458.65-7.1 459.83-4.98 461-2.85 464.23-2.85 467.45-2.85 469.45-4.7L469.45-4.7Q469.65-8.7 469.65-14.15 469.65-19.6 469.25-24.4L469.25-24.4Q467-24.65 465.1-25.15L465.1-25.15 465.25-26.4Q467.85-26.05 471.08-26.05 474.3-26.05 476.85-26.45L476.85-26.45 477.05-25.15Q475.65-24.7 473.9-24.4L473.9-24.4Q473.4-21.05 473.4-14.2ZM481.4-24.95L481.4-25.95 492.9-26.3Q497.4-26.3 499.65-24.98 501.9-23.65 501.9-20.15L501.9-20.15Q501.9-17.75 500.42-15.9 498.95-14.05 496.55-13.15L496.55-13.15 502.15-1.7Q503.85-1.4 505.35-1L505.35-1 505.15 0.35Q503.05 0 500.42 0 497.8 0 496.3 0.25L496.3 0.25 496.1-0.55Q496.75-1.2 496.75-2.7L496.75-2.7Q496.75-5.75 493.25-12.5L493.25-12.5Q492.2-12.7 490.8-12.7L490.8-12.7 490.9-14.15 491.4-14.15Q497.3-14.15 497.3-19.55L497.3-19.55Q497.3-24.55 492.25-24.55L492.25-24.55Q490.55-24.55 489.2-24L489.2-24Q488.85-20.7 488.85-12.7 488.85-4.7 489.3-1.65L489.3-1.65Q491.5-1.4 493.4-0.9L493.4-0.9 493.25 0.35Q490.65 0 487.42 0 484.2 0 481.65 0.4L481.65 0.4 481.45-0.9Q482.85-1.35 484.6-1.65L484.6-1.65Q485.1-5.4 485.1-13.33 485.1-21.25 484.65-24.3L484.65-24.3Q482.7-24.95 481.4-24.95L481.4-24.95ZM512.1-12.35Q512.25-7.9 513.75-5.4 515.25-2.9 518.85-2.9 522.45-2.9 525.5-5.95L525.5-5.95 526.2-5.25Q522.85-1 518.14 0.6L518.14 0.6Q513.3 0.6 510.55-2.48 507.8-5.55 507.8-10.78 507.8-16 511.05-20.6 514.3-25.2 519.35-26.65L519.35-26.65Q523-26.65 527.6-25.9L527.6-25.9 527.55-24.8Q526.6-24.8 525.75-24.45L525.75-24.45Q524.8-22.2 524.5-19.1L524.5-19.1 523.25-19.1Q522.85-20.8 522.85-22.6L522.85-22.6Q520.95-23.55 518.35-23.55 515.75-23.55 514.05-22.15L514.05-22.15Q512.35-19.05 512.1-14.75L512.1-14.75Q514.2-14.4 516.6-14.4L516.6-14.4Q520.75-14.4 521.6-16.15L521.6-16.15 522.64-16Q522.2-14.5 522.2-13.05 522.2-11.6 522.55-9.5L522.55-9.5 521.35-9.3Q520.8-10.8 520.55-12.4L520.55-12.4Q518.55-12.6 516.57-12.6 514.6-12.6 512.1-12.35L512.1-12.35ZM535.94-2.3L535.94-2.3Q535.94 0.2 534.24 2.8 532.54 5.4 530.24 6.95L530.24 6.95 529.74 6.45Q530.79 5.2 531.64 3.38 532.49 1.55 532.54 0.2L532.54 0.2Q531.24-1 530.54-2.3L530.54-2.3Q530.84-2.9 531.69-3.68 532.54-4.45 533.24-4.8L533.24-4.8Q533.89-4.4 534.74-3.63 535.59-2.85 535.94-2.3ZM550.24-32.95L550.24-32.95Q554.49-32.55 559.46-32.55 564.44-32.55 565.66-32.48 566.89-32.4 568.34-32.1 569.79-31.8 570.59-31.2L570.59-31.2Q572.59-29.85 572.59-27.08 572.59-24.3 570.64-22.03 568.69-19.75 565.89-18.6L565.89-18.6 565.89-18.4Q569.49-18.4 571.74-16.73 573.99-15.05 573.99-11.8L573.99-11.8Q573.99-7.8 570.24-4.1 566.49-0.4 562.14 0.75L562.14 0.75Q559.04 0.75 554.84-1.15L554.84-1.15Q553.99 0.15 553.69 1.1L553.69 1.1 552.64 0.85Q553.84-4.6 553.84-16.25L553.84-16.25Q553.84-20.7 553.44-29.9L553.44-29.9Q547.89-29.8 546.34-28.3L546.34-28.3Q545.99-27.6 545.99-26.1 545.99-24.6 546.49-24.05L546.49-24.05 546.44-23.7Q545.19-22.95 543.94-21.6L543.94-21.6Q543.34-21.65 542.96-22.1 542.59-22.55 542.59-23.15L542.59-23.15Q542.59-25.45 545.21-28.6 547.84-31.75 550.24-32.95ZM560.14-19.1L560.74-19.1Q564.44-19.1 566.09-20.15L566.09-20.15Q567.89-22.15 567.89-25.23 567.89-28.3 566.21-29.18 564.54-30.05 561.86-30.05 559.19-30.05 558.09-29.9L558.09-29.9Q557.69-24.85 557.69-16.75 557.69-8.65 557.94-4.25L557.94-4.25Q560.54-2.85 563.51-2.85 566.49-2.85 568.24-4.05L568.24-4.05Q569.39-6.5 569.39-9.55L569.39-9.55Q569.39-17.25 559.89-17.25L559.89-17.25 560.14-19.1ZM593.18-24.35L593.18-24.35Q593.18-25.15 591.83-25.45L591.83-25.45 592.03-26.3Q593.53-26.05 595.96-26.05 598.38-26.05 601.28-26.45L601.28-26.45 601.48-25.15Q600.18-24.7 598.18-24.4L598.18-24.4 589.88-11.9Q589.88-5.4 590.38-1.65L590.38-1.65Q592.58-1.4 594.48-0.9L594.48-0.9 594.33 0.35Q591.73 0 588.36 0 584.98 0 582.43 0.4L582.43 0.4 582.23-0.9Q583.18-1.2 585.63-1.65L585.63-1.65Q586.08-4.35 586.08-9.8L586.08-9.8 586.08-10.85Q580.28-22.55 578.73-24.45L578.73-24.45Q577.33-24.6 575.63-25.15L575.63-25.15 575.83-26.45Q577.83-26.05 581.58-26.05 585.33-26.05 587.73-26.45L587.73-26.45 587.93-25.2Q585.58-24.65 583.98-24.45L583.98-24.45Q585.68-19.25 588.73-13.5L588.73-13.5Q593.18-22.15 593.18-24.35ZM618.13-23.35L618.13-23.35Q616.38-24.2 614.78-24.2 613.18-24.2 612.63-24L612.63-24Q612.23-21.3 612.23-13.55 612.23-5.8 612.78-1.65L612.78-1.65Q615.03-1.4 616.93-0.9L616.93-0.9 616.78 0.35Q614.18 0 610.81 0 607.43 0 604.88 0.4L604.88 0.4 604.68-0.9Q605.68-1.2 608.13-1.65L608.13-1.65Q608.58-5.25 608.58-11.85L608.58-11.85 608.58-14.2Q608.58-17.7 608.03-24L608.03-24Q607.48-24.2 605.98-24.2 604.48-24.2 602.78-23.5L602.78-23.5Q602.28-21.95 602.08-19.35L602.08-19.35 600.78-19.35Q600.78-23.45 599.43-25.7L599.43-25.7 599.68-26.55Q603.53-26.05 610.48-26.05 617.43-26.05 621.68-26.6L621.68-26.6 621.98-25.65Q620.73-24.25 620.28-22.93 619.83-21.6 619.73-19.35L619.73-19.35 618.48-19.35Q618.13-21 618.13-23.35ZM627.73-12.35Q627.88-7.9 629.38-5.4 630.88-2.9 634.48-2.9 638.08-2.9 641.13-5.95L641.13-5.95 641.83-5.25Q638.48-1 633.78 0.6L633.78 0.6Q628.93 0.6 626.18-2.48 623.43-5.55 623.43-10.78 623.43-16 626.68-20.6 629.93-25.2 634.98-26.65L634.98-26.65Q638.63-26.65 643.23-25.9L643.23-25.9 643.18-24.8Q642.23-24.8 641.38-24.45L641.38-24.45Q640.43-22.2 640.13-19.1L640.13-19.1 638.88-19.1Q638.48-20.8 638.48-22.6L638.48-22.6Q636.58-23.55 633.98-23.55 631.38-23.55 629.68-22.15L629.68-22.15Q627.98-19.05 627.73-14.75L627.73-14.75Q629.83-14.4 632.23-14.4L632.23-14.4Q636.38-14.4 637.23-16.15L637.23-16.15 638.28-16Q637.83-14.5 637.83-13.05 637.83-11.6 638.18-9.5L638.18-9.5 636.98-9.3Q636.43-10.8 636.18-12.4L636.18-12.4Q634.18-12.6 632.2-12.6 630.23-12.6 627.73-12.35L627.73-12.35ZM654.47-24.7L654.47-25.95 666.42-26.3Q671.32-26.3 672.97-25.1L672.97-25.1Q674.57-24 674.57-21.73 674.57-19.45 672.95-17.63 671.32-15.8 668.97-14.9L668.97-14.9 668.97-14.7Q671.97-14.7 673.82-13.43 675.67-12.15 675.67-9.28 675.67-6.4 672.47-3.38 669.27-0.35 665.92 0.6L665.92 0.6Q664.72 0.6 662.65 0.1 660.57-0.4 659.27-0.9L659.27-0.9Q658.72-0.25 658.27 0.95L658.27 0.95 657.22 0.7Q658.17-3.75 658.17-11.88 658.17-20 657.72-24.05L657.72-24.05Q656.02-24.7 654.47-24.7L654.47-24.7ZM663.87-15.4L664.32-15.4Q667.42-15.4 668.82-16.25L668.82-16.25Q670.07-17.8 670.07-20.2L670.07-20.2Q670.07-24.55 665.32-24.55L665.32-24.55Q663.67-24.55 662.27-24L662.27-24Q661.92-20.6 661.92-13.55 661.92-6.5 662.12-3.7L662.12-3.7Q664.17-2.6 666.65-2.6 669.12-2.6 670.42-3.55L670.42-3.55Q671.27-5.25 671.27-7.65L671.27-7.65Q671.27-10.95 669.32-12.3 667.37-13.65 663.67-13.65L663.67-13.65 663.87-15.4ZM695.57-24.35L695.57-24.35Q695.57-25.15 694.22-25.45L694.22-25.45 694.42-26.3Q695.92-26.05 698.35-26.05 700.77-26.05 703.67-26.45L703.67-26.45 703.87-25.15Q702.57-24.7 700.57-24.4L700.57-24.4 692.27-11.9Q692.27-5.4 692.77-1.65L692.77-1.65Q694.97-1.4 696.87-0.9L696.87-0.9 696.72 0.35Q694.12 0 690.75 0 687.37 0 684.82 0.4L684.82 0.4 684.62-0.9Q685.57-1.2 688.02-1.65L688.02-1.65Q688.47-4.35 688.47-9.8L688.47-9.8 688.47-10.85Q682.67-22.55 681.12-24.45L681.12-24.45Q679.72-24.6 678.02-25.15L678.02-25.15 678.22-26.45Q680.22-26.05 683.97-26.05 687.72-26.05 690.12-26.45L690.12-26.45 690.32-25.2Q687.97-24.65 686.37-24.45L686.37-24.45Q688.07-19.25 691.12-13.5L691.12-13.5Q695.57-22.15 695.57-24.35ZM713.67-32.95L713.67-32.95Q717.92-32.55 722.89-32.55 727.87-32.55 729.09-32.48 730.32-32.4 731.77-32.1 733.22-31.8 734.02-31.2L734.02-31.2Q736.02-29.85 736.02-27.08 736.02-24.3 734.07-22.03 732.12-19.75 729.32-18.6L729.32-18.6 729.32-18.4Q732.92-18.4 735.17-16.73 737.42-15.05 737.42-11.8L737.42-11.8Q737.42-7.8 733.67-4.1 729.92-0.4 725.57 0.75L725.57 0.75Q722.47 0.75 718.27-1.15L718.27-1.15Q717.42 0.15 717.12 1.1L717.12 1.1 716.07 0.85Q717.27-4.6 717.27-16.25L717.27-16.25Q717.27-20.7 716.87-29.9L716.87-29.9Q711.32-29.8 709.77-28.3L709.77-28.3Q709.42-27.6 709.42-26.1 709.42-24.6 709.92-24.05L709.92-24.05 709.87-23.7Q708.62-22.95 707.37-21.6L707.37-21.6Q706.77-21.65 706.39-22.1 706.02-22.55 706.02-23.15L706.02-23.15Q706.02-25.45 708.64-28.6 711.27-31.75 713.67-32.95ZM723.57-19.1L724.17-19.1Q727.87-19.1 729.52-20.15L729.52-20.15Q731.32-22.15 731.32-25.23 731.32-28.3 729.64-29.18 727.97-30.05 725.29-30.05 722.62-30.05 721.52-29.9L721.52-29.9Q721.12-24.85 721.12-16.75 721.12-8.65 721.37-4.25L721.37-4.25Q723.97-2.85 726.94-2.85 729.92-2.85 731.67-4.05L731.67-4.05Q732.82-6.5 732.82-9.55L732.82-9.55Q732.82-17.25 723.32-17.25L723.32-17.25 723.57-19.1ZM756.61-24.35L756.61-24.35Q756.61-25.15 755.26-25.45L755.26-25.45 755.46-26.3Q756.96-26.05 759.39-26.05 761.81-26.05 764.71-26.45L764.71-26.45 764.91-25.15Q763.61-24.7 761.61-24.4L761.61-24.4 753.31-11.9Q753.31-5.4 753.81-1.65L753.81-1.65Q756.01-1.4 757.91-0.9L757.91-0.9 757.76 0.35Q755.16 0 751.79 0 748.41 0 745.86 0.4L745.86 0.4 745.66-0.9Q746.61-1.2 749.06-1.65L749.06-1.65Q749.51-4.35 749.51-9.8L749.51-9.8 749.51-10.85Q743.71-22.55 742.16-24.45L742.16-24.45Q740.76-24.6 739.06-25.15L739.06-25.15 739.26-26.45Q741.26-26.05 745.01-26.05 748.76-26.05 751.16-26.45L751.16-26.45 751.36-25.2Q749.01-24.65 747.41-24.45L747.41-24.45Q749.11-19.25 752.16-13.5L752.16-13.5Q756.61-22.15 756.61-24.35ZM781.56-23.35L781.56-23.35Q779.81-24.2 778.21-24.2 776.61-24.2 776.06-24L776.06-24Q775.66-21.3 775.66-13.55 775.66-5.8 776.21-1.65L776.21-1.65Q778.46-1.4 780.36-0.9L780.36-0.9 780.21 0.35Q777.61 0 774.24 0 770.86 0 768.31 0.4L768.31 0.4 768.11-0.9Q769.11-1.2 771.56-1.65L771.56-1.65Q772.01-5.25 772.01-11.85L772.01-11.85 772.01-14.2Q772.01-17.7 771.46-24L771.46-24Q770.91-24.2 769.41-24.2 767.91-24.2 766.21-23.5L766.21-23.5Q765.71-21.95 765.51-19.35L765.51-19.35 764.21-19.35Q764.21-23.45 762.86-25.7L762.86-25.7 763.11-26.55Q766.96-26.05 773.91-26.05 780.86-26.05 785.11-26.6L785.11-26.6 785.41-25.65Q784.16-24.25 783.71-22.93 783.26-21.6 783.16-19.35L783.16-19.35 781.91-19.35Q781.56-21 781.56-23.35ZM791.16-12.35Q791.31-7.9 792.81-5.4 794.31-2.9 797.91-2.9 801.51-2.9 804.56-5.95L804.56-5.95 805.26-5.25Q801.91-1 797.21 0.6L797.21 0.6Q792.36 0.6 789.61-2.48 786.86-5.55 786.86-10.78 786.86-16 790.11-20.6 793.36-25.2 798.41-26.65L798.41-26.65Q802.06-26.65 806.66-25.9L806.66-25.9 806.61-24.8Q805.66-24.8 804.81-24.45L804.81-24.45Q803.86-22.2 803.56-19.1L803.56-19.1 802.31-19.1Q801.91-20.8 801.91-22.6L801.91-22.6Q800.01-23.55 797.41-23.55 794.81-23.55 793.11-22.15L793.11-22.15Q791.41-19.05 791.16-14.75L791.16-14.75Q793.26-14.4 795.66-14.4L795.66-14.4Q799.81-14.4 800.66-16.15L800.66-16.15 801.71-16Q801.26-14.5 801.26-13.05 801.26-11.6 801.61-9.5L801.61-9.5 800.41-9.3Q799.86-10.8 799.61-12.4L799.61-12.4Q797.61-12.6 795.63-12.6 793.66-12.6 791.16-12.35L791.16-12.35Z" opacity="1" transform="matrix(1,0,0,1,0,0)" fill="#e9e4de" class="slogan-text-1" data-fill-palette-color="secondary" id="text-1"></path></svg></g></svg></g></svg></g></svg></g></svg></g><defs></defs></svg><rect width="361.4383050463957" height="247.2" fill="none" stroke="none" visibility="hidden"></rect></g></svg></g></svg>